<svg height="512" viewBox="0 0 512 512" width="512" xmlns="http://www.w3.org/2000/svg" xmlns:xlink="http://www.w3.org/1999/xlink"><linearGradient id="a" gradientUnits="userSpaceOnUse" x1="81.07" x2="584.232" y1="538.93" y2="35.768" data-name="New Gradient Swatch 1"><stop offset="0" stop-color="#003f8a"/><stop offset=".518" stop-color="#00d7df"/><stop offset="1" stop-color="#006df0"/></linearGradient><linearGradient id="b" x1="99.07" x2="602.232" xlink:href="#a" y1="556.93" y2="53.768"/><linearGradient id="c" x1="111.07" x2="614.232" xlink:href="#a" y1="568.93" y2="65.768"/><linearGradient id="d" x1="123.07" x2="626.232" xlink:href="#a" y1="580.93" y2="77.768"/><linearGradient id="e" x1="121.07" x2="624.232" xlink:href="#a" y1="578.93" y2="75.768"/><linearGradient id="f" x1="141.07" x2="644.232" xlink:href="#a" y1="598.93" y2="95.768"/><linearGradient id="g" x1="-38.93" x2="464.232" xlink:href="#a" y1="418.93" y2="-84.232"/><linearGradient id="h" x1="-20.93" x2="482.232" xlink:href="#a" y1="436.93" y2="-66.232"/><linearGradient id="i" x1="-8.93" x2="494.232" xlink:href="#a" y1="448.93" y2="-54.232"/><linearGradient id="j" x1="3.029" x2="506.192" xlink:href="#a" y1="460.971" y2="-42.192"/><linearGradient id="k" x1="1.07" x2="504.232" xlink:href="#a" y1="458.93" y2="-44.232"/><linearGradient id="l" x1="21.07" x2="524.232" xlink:href="#a" y1="478.93" y2="-24.232"/><linearGradient id="m" x1="73.07" x2="576.232" xlink:href="#a" y1="530.93" y2="27.768"/><linearGradient id="n" x1="137.07" x2="640.232" xlink:href="#a" y1="594.93" y2="91.768"/><linearGradient id="o" x1="155.07" x2="658.232" xlink:href="#a" y1="612.93" y2="109.768"/><linearGradient id="p" x1="167.07" x2="670.232" xlink:href="#a" y1="624.93" y2="121.768"/><linearGradient id="q" x1="179.07" x2="682.232" xlink:href="#a" y1="636.93" y2="133.768"/><linearGradient id="r" x1="177.07" x2="680.232" xlink:href="#a" y1="634.93" y2="131.768"/><linearGradient id="s" x1="197.07" x2="700.232" xlink:href="#a" y1="654.93" y2="151.768"/><linearGradient id="t" x1="-42.93" x2="460.232" xlink:href="#a" y1="414.93" y2="-88.232"/><linearGradient id="u" x1="-22.93" x2="480.232" xlink:href="#a" y1="434.93" y2="-68.232"/><linearGradient id="v" x1="3.07" x2="506.232" xlink:href="#a" y1="460.93" y2="-42.232"/><linearGradient id="w" x1="-50.93" x2="452.232" xlink:href="#a" y1="406.93" y2="-96.232"/><linearGradient id="x" x1="49.07" x2="552.232" xlink:href="#a" y1="506.93" y2="3.768"/><linearGradient id="z" x1="-14.93" x2="488.232" xlink:href="#a" y1="442.93" y2="-60.232"/><linearGradient id="aa" x1="-70.93" x2="432.232" xlink:href="#a" y1="386.93" y2="-116.232"/><linearGradient id="ab" x1="65.07" x2="568.232" xlink:href="#a" y1="522.93" y2="19.768"/><linearGradient id="ac" x1="201.07" x2="704.232" xlink:href="#a" y1="658.93" y2="155.768"/><g><path d="m296 344h-80a8 8 0 0 0 -8 8v24a8 8 0 0 0 8 8h80a8 8 0 0 0 8-8v-24a8 8 0 0 0 -8-8zm-8 24h-64v-8h64z" fill="url(#a)"/><path d="m296 392h-80a8 8 0 0 0 0 16h80a8 8 0 0 0 0-16z" fill="url(#b)"/><path d="m296 416h-80a8 8 0 0 0 0 16h80a8 8 0 0 0 0-16z" fill="url(#c)"/><path d="m296 440h-80a8 8 0 0 0 0 16h80a8 8 0 0 0 0-16z" fill="url(#d)"/><path d="m240 464h-24a8 8 0 0 0 0 16h24a8 8 0 0 0 0-16z" fill="url(#e)"/><path d="m272 464h-8a8 8 0 0 0 0 16h8a8 8 0 0 0 0-16z" fill="url(#f)"/><path d="m120 280h-80a8 8 0 0 0 -8 8v24a8 8 0 0 0 8 8h80a8 8 0 0 0 8-8v-24a8 8 0 0 0 -8-8zm-8 24h-64v-8h64z" fill="url(#g)"/><path d="m120 328h-80a8 8 0 0 0 0 16h80a8 8 0 0 0 0-16z" fill="url(#h)"/><path d="m120 352h-80a8 8 0 0 0 0 16h80a8 8 0 0 0 0-16z" fill="url(#i)"/><path d="m120 376h-80a8 8 0 0 0 0 16h80a8 8 0 0 0 0-16z" fill="url(#j)"/><path d="m64 400h-24a8 8 0 0 0 0 16h24a8 8 0 0 0 0-16z" fill="url(#k)"/><path d="m96 400h-8a8 8 0 0 0 0 16h8a8 8 0 0 0 0-16z" fill="url(#l)"/><path d="m496 256h-56v-144a8 8 0 0 0 -8-8h-15a8 8 0 0 0 0 16h7v136h-56a8 8 0 0 0 -8 8v82.23l-32 10.67v-28.9a8 8 0 0 0 -8-8h-128a8 8 0 0 0 -8 8v28.9l-32-10.67v-82.23a8 8 0 0 0 -8-8h-128a8 8 0 0 0 -8 8v168a8 8 0 0 0 8 8h128a8 8 0 0 0 8-8v-68.9l32 10.67v122.23a8 8 0 0 0 8 8h128a8 8 0 0 0 8-8v-122.23l32-10.67v68.9a8 8 0 0 0 8 8h128a8 8 0 0 0 8-8v-168a8 8 0 0 0 -8-8zm-360 168h-112v-152h112zm176 64h-112v-152h112zm176-64h-112v-152h112z" fill="url(#m)"/><path d="m392 320h80a8 8 0 0 0 8-8v-24a8 8 0 0 0 -8-8h-80a8 8 0 0 0 -8 8v24a8 8 0 0 0 8 8zm8-24h64v8h-64z" fill="url(#n)"/><path d="m392 344h80a8 8 0 0 0 0-16h-80a8 8 0 0 0 0 16z" fill="url(#o)"/><path d="m392 368h80a8 8 0 0 0 0-16h-80a8 8 0 0 0 0 16z" fill="url(#p)"/><path d="m392 392h80a8 8 0 0 0 0-16h-80a8 8 0 0 0 0 16z" fill="url(#q)"/><path d="m392 416h24a8 8 0 0 0 0-16h-24a8 8 0 0 0 0 16z" fill="url(#r)"/><path d="m448 400h-8a8 8 0 0 0 0 16h8a8 8 0 0 0 0-16z" fill="url(#s)"/><path d="m256 96h80a8 8 0 0 0 8-8v-24a8 8 0 0 0 -8-8h-80a8 8 0 0 0 -8 8v24a8 8 0 0 0 8 8zm8-24h64v8h-64z" fill="url(#t)"/><path d="m336 104h-72a8 8 0 0 0 0 16h72a8 8 0 0 0 0-16z" fill="url(#u)"/><path d="m336 128h-16a8 8 0 0 0 0 16h16a8 8 0 0 0 0-16z" fill="url(#v)"/><path d="m80 216a8 8 0 0 0 8-8v-88h56v64a8 8 0 0 0 8 8h96v80a8 8 0 0 0 16 0v-80h96a8 8 0 0 0 8-8v-144a8 8 0 0 0 -8-8h-122.234l-6.177-18.53a8 8 0 0 0 -7.589-5.47h-72a8 8 0 0 0 -8 8v88h-64a8 8 0 0 0 -8 8v96a8 8 0 0 0 8 8zm80-192h58.234l6.177 18.53a8 8 0 0 0 7.589 5.47h120v128h-192z" fill="url(#w)"/><path d="m256 288a8 8 0 0 0 -8 8v8a8 8 0 0 0 16 0v-8a8 8 0 0 0 -8-8z" fill="url(#x)"/><path d="m384 120h8a8 8 0 0 0 0-16h-8a8 8 0 0 0 0 16z" fill="url(#l)"/><path d="m296 128h-8a8 8 0 0 0 0 16h8a8 8 0 0 0 0-16z" fill="url(#z)"/><path d="m80 248a8 8 0 0 0 8-8v-8a8 8 0 0 0 -16 0v8a8 8 0 0 0 8 8z" fill="url(#aa)"/><path d="m168 464h-80v-8a8 8 0 0 0 -16 0v16a8 8 0 0 0 8 8h88a8 8 0 0 0 0-16z" fill="url(#ab)"/><path d="m432 448a8 8 0 0 0 -8 8v8h-80a8 8 0 0 0 0 16h88a8 8 0 0 0 8-8v-16a8 8 0 0 0 -8-8z" fill="url(#ac)"/></g></svg>